<mxfile host="app.diagrams.net" modified="2023-12-13T00:13:59.865Z" agent="Mozilla/5.0 (Windows NT 10.0; Win64; x64) AppleWebKit/537.36 (KHTML, like Gecko) Chrome/120.0.0.0 Safari/537.36" etag="HwmHO4U22b4xAE8kkNQH" version="22.1.8" type="github">
  <diagram name="Sayfa -1" id="qlRMu28OWiUof3vOBGV5">
    <mxGraphModel dx="1434" dy="790" grid="1" gridSize="10" guides="1" tooltips="1" connect="1" arrows="1" fold="1" page="1" pageScale="1" pageWidth="827" pageHeight="1169" math="0" shadow="0">
      <root>
        <mxCell id="0" />
        <mxCell id="1" parent="0" />
        <mxCell id="SZrnincmtaAKyqRU8qYc-19" style="edgeStyle=orthogonalEdgeStyle;rounded=0;orthogonalLoop=1;jettySize=auto;html=1;" edge="1" parent="1" source="SZrnincmtaAKyqRU8qYc-1" target="SZrnincmtaAKyqRU8qYc-8">
          <mxGeometry relative="1" as="geometry" />
        </mxCell>
        <mxCell id="SZrnincmtaAKyqRU8qYc-1" value="GridData" style="swimlane;fontStyle=1;align=center;verticalAlign=top;childLayout=stackLayout;horizontal=1;startSize=26;horizontalStack=0;resizeParent=1;resizeParentMax=0;resizeLast=0;collapsible=1;marginBottom=0;whiteSpace=wrap;html=1;" vertex="1" parent="1">
          <mxGeometry x="10" y="380" width="160" height="154" as="geometry" />
        </mxCell>
        <mxCell id="SZrnincmtaAKyqRU8qYc-2" value="- rowOrder : int&lt;br&gt;- coloumnOder : int" style="text;strokeColor=none;fillColor=none;align=left;verticalAlign=top;spacingLeft=4;spacingRight=4;overflow=hidden;rotatable=0;points=[[0,0.5],[1,0.5]];portConstraint=eastwest;whiteSpace=wrap;html=1;" vertex="1" parent="SZrnincmtaAKyqRU8qYc-1">
          <mxGeometry y="26" width="160" height="94" as="geometry" />
        </mxCell>
        <mxCell id="SZrnincmtaAKyqRU8qYc-3" value="" style="line;strokeWidth=1;fillColor=none;align=left;verticalAlign=middle;spacingTop=-1;spacingLeft=3;spacingRight=3;rotatable=0;labelPosition=right;points=[];portConstraint=eastwest;strokeColor=inherit;" vertex="1" parent="SZrnincmtaAKyqRU8qYc-1">
          <mxGeometry y="120" width="160" height="8" as="geometry" />
        </mxCell>
        <mxCell id="SZrnincmtaAKyqRU8qYc-4" value="+ method(type): type" style="text;strokeColor=none;fillColor=none;align=left;verticalAlign=top;spacingLeft=4;spacingRight=4;overflow=hidden;rotatable=0;points=[[0,0.5],[1,0.5]];portConstraint=eastwest;whiteSpace=wrap;html=1;" vertex="1" parent="SZrnincmtaAKyqRU8qYc-1">
          <mxGeometry y="128" width="160" height="26" as="geometry" />
        </mxCell>
        <mxCell id="SZrnincmtaAKyqRU8qYc-5" value="GridManager" style="swimlane;fontStyle=1;align=center;verticalAlign=top;childLayout=stackLayout;horizontal=1;startSize=26;horizontalStack=0;resizeParent=1;resizeParentMax=0;resizeLast=0;collapsible=1;marginBottom=0;whiteSpace=wrap;html=1;" vertex="1" parent="1">
          <mxGeometry x="300" y="160" width="180" height="208" as="geometry" />
        </mxCell>
        <mxCell id="SZrnincmtaAKyqRU8qYc-6" value="+ GridPosition : int&lt;br&gt;- _gridParent : GameObject" style="text;strokeColor=none;fillColor=none;align=left;verticalAlign=top;spacingLeft=4;spacingRight=4;overflow=hidden;rotatable=0;points=[[0,0.5],[1,0.5]];portConstraint=eastwest;whiteSpace=wrap;html=1;" vertex="1" parent="SZrnincmtaAKyqRU8qYc-5">
          <mxGeometry y="26" width="180" height="54" as="geometry" />
        </mxCell>
        <mxCell id="SZrnincmtaAKyqRU8qYc-7" value="" style="line;strokeWidth=1;fillColor=none;align=left;verticalAlign=middle;spacingTop=-1;spacingLeft=3;spacingRight=3;rotatable=0;labelPosition=right;points=[];portConstraint=eastwest;strokeColor=inherit;" vertex="1" parent="SZrnincmtaAKyqRU8qYc-5">
          <mxGeometry y="80" width="180" height="8" as="geometry" />
        </mxCell>
        <mxCell id="SZrnincmtaAKyqRU8qYc-8" value="+ AlignGrids(): void" style="text;strokeColor=none;fillColor=none;align=left;verticalAlign=top;spacingLeft=4;spacingRight=4;overflow=hidden;rotatable=0;points=[[0,0.5],[1,0.5]];portConstraint=eastwest;whiteSpace=wrap;html=1;" vertex="1" parent="SZrnincmtaAKyqRU8qYc-5">
          <mxGeometry y="88" width="180" height="120" as="geometry" />
        </mxCell>
        <mxCell id="SZrnincmtaAKyqRU8qYc-12" value="ObjectPool" style="swimlane;fontStyle=1;align=center;verticalAlign=top;childLayout=stackLayout;horizontal=1;startSize=26;horizontalStack=0;resizeParent=1;resizeParentMax=0;resizeLast=0;collapsible=1;marginBottom=0;whiteSpace=wrap;html=1;" vertex="1" parent="1">
          <mxGeometry x="610" y="440" width="260" height="120" as="geometry" />
        </mxCell>
        <mxCell id="SZrnincmtaAKyqRU8qYc-31" value="+ pools : Pool[]" style="text;html=1;align=left;verticalAlign=middle;resizable=0;points=[];autosize=1;strokeColor=none;fillColor=none;" vertex="1" parent="SZrnincmtaAKyqRU8qYc-12">
          <mxGeometry y="26" width="260" height="30" as="geometry" />
        </mxCell>
        <mxCell id="SZrnincmtaAKyqRU8qYc-14" value="" style="line;strokeWidth=1;fillColor=none;align=left;verticalAlign=middle;spacingTop=-1;spacingLeft=3;spacingRight=3;rotatable=0;labelPosition=right;points=[];portConstraint=eastwest;strokeColor=inherit;" vertex="1" parent="SZrnincmtaAKyqRU8qYc-12">
          <mxGeometry y="56" width="260" height="34" as="geometry" />
        </mxCell>
        <mxCell id="SZrnincmtaAKyqRU8qYc-15" value="+ GetPooledObject() : GameObject" style="text;strokeColor=none;fillColor=none;align=left;verticalAlign=top;spacingLeft=4;spacingRight=4;overflow=hidden;rotatable=0;points=[[0,0.5],[1,0.5]];portConstraint=eastwest;whiteSpace=wrap;html=1;" vertex="1" parent="SZrnincmtaAKyqRU8qYc-12">
          <mxGeometry y="90" width="260" height="30" as="geometry" />
        </mxCell>
        <mxCell id="SZrnincmtaAKyqRU8qYc-18" style="rounded=0;orthogonalLoop=1;jettySize=auto;html=1;entryX=0.988;entryY=0.258;entryDx=0;entryDy=0;entryPerimeter=0;edgeStyle=orthogonalEdgeStyle;" edge="1" parent="1" source="SZrnincmtaAKyqRU8qYc-12" target="SZrnincmtaAKyqRU8qYc-8">
          <mxGeometry relative="1" as="geometry" />
        </mxCell>
        <mxCell id="SZrnincmtaAKyqRU8qYc-21" value="Pool" style="swimlane;fontStyle=0;childLayout=stackLayout;horizontal=1;startSize=26;fillColor=none;horizontalStack=0;resizeParent=1;resizeParentMax=0;resizeLast=0;collapsible=1;marginBottom=0;whiteSpace=wrap;html=1;" vertex="1" parent="1">
          <mxGeometry x="430" y="640" width="240" height="90" as="geometry">
            <mxRectangle x="430" y="640" width="70" height="30" as="alternateBounds" />
          </mxGeometry>
        </mxCell>
        <mxCell id="SZrnincmtaAKyqRU8qYc-22" value="- _pooledObjects : Queue&amp;lt;GameObject&amp;gt;&lt;br style=&quot;border-color: var(--border-color);&quot;&gt;- objectPrefab : GameObject&lt;br style=&quot;border-color: var(--border-color);&quot;&gt;- poolSize : int" style="text;strokeColor=none;fillColor=none;align=left;verticalAlign=top;spacingLeft=4;spacingRight=4;overflow=hidden;rotatable=0;points=[[0,0.5],[1,0.5]];portConstraint=eastwest;whiteSpace=wrap;html=1;" vertex="1" parent="SZrnincmtaAKyqRU8qYc-21">
          <mxGeometry y="26" width="240" height="64" as="geometry" />
        </mxCell>
        <mxCell id="SZrnincmtaAKyqRU8qYc-32" style="edgeStyle=orthogonalEdgeStyle;rounded=0;orthogonalLoop=1;jettySize=auto;html=1;entryX=0;entryY=0.467;entryDx=0;entryDy=0;entryPerimeter=0;" edge="1" parent="1" source="SZrnincmtaAKyqRU8qYc-21" target="SZrnincmtaAKyqRU8qYc-31">
          <mxGeometry relative="1" as="geometry" />
        </mxCell>
      </root>
    </mxGraphModel>
  </diagram>
</mxfile>
